# xmcd
#
# Track frame offsets:
#	150
#	14828
#	32043
#	47469
#	64534
#	78787
#	98196
#	115441
#	129779
#	144554
#	159580
#	176532
#	192054
#	206371
#	225482
#
# Disc length: 3210 seconds
#
# Revision: 0
# Processed by: cddbd v1.5.2PL0 Copyright (c) Steve Scherf et al.
# Submitted via: EasyCDDAExtractor 2010.6.0.0
#
DISCID=ba0c880f
DTITLE=Amigos - Amigos - Das Beste 
DYEAR=1900
DGENRE=Schlager
TTITLE0=Im Herzen jung
TTITLE1=Dann kam ein Engel
TTITLE2=Ein Tag im Paradies
TTITLE3=Lügst du immer noch
TTITLE4=Weisst du noch
TTITLE5=Mein Opa
TTITLE6=Weisse Rosen blühen in Athen
TTITLE7=Die kleine Bank
TTITLE8=Sayonara
TTITLE9=Nur das Meer sah zu
TTITLE10=Rose im Sand
TTITLE11=Juanita
TTITLE12=Er zieht nachts durch die Straßen
TTITLE13=Schau zum Himmel
TTITLE14=Mein Elternhaus
EXTD=
EXTT0=
EXTT1=
EXTT2=
EXTT3=
EXTT4=
EXTT5=
EXTT6=
EXTT7=
EXTT8=
EXTT9=
EXTT10=
EXTT11=
EXTT12=
EXTT13=
EXTT14=
PLAYORDER=
